<?xml version="1.0" encoding="utf-8"?>
<!-- Generator: Adobe Illustrator 16.0.4, SVG Export Plug-In . SVG Version: 6.00 Build 0)  -->
<!DOCTYPE svg PUBLIC "-//W3C//DTD SVG 1.1//EN" "http://www.w3.org/Graphics/SVG/1.1/DTD/svg11.dtd">
<svg version="1.1" id="Ebene_1" xmlns="http://www.w3.org/2000/svg" xmlns:xlink="http://www.w3.org/1999/xlink" x="0px" y="0px"
	 width="731.34px" height="348.66px" viewBox="0 0 731.34 348.66" enable-background="new 0 0 731.34 348.66" xml:space="preserve">
<g>
	
		<text transform="matrix(1 0 0 1 111.4004 154.4019)" fill="#DD88A5" font-family="'HelveticaNeue-UltraLight'" font-size="72" letter-spacing="4">Theresa Scholl</text>
	<text transform="matrix(1 0 0 1 111.4004 240.8076)" fill="#DD88A5" font-family="'HelveticaNeue-UltraLight'" font-size="72">T</text>
	
		<text transform="matrix(1 0 0 1 155.8848 240.8076)" fill="#DD88A5" font-family="'HelveticaNeue-UltraLight'" font-size="72" letter-spacing="14">extildesign</text>
	<text transform="matrix(1 0 0 1 599.1895 240.8076)" fill="#DD88A5" font-family="'HelveticaNeue-UltraLight'" font-size="72"> </text>
	<text transform="matrix(1 0 0 1 81.6191 99.855)" fill="#010202" font-family="'HelveticaNeue'" font-size="60">T</text>
	<text transform="matrix(1 0 0 1 240.6426 175.6826)" fill="#010202" font-family="'HelveticaNeue'" font-size="60">H</text>
	<text transform="matrix(1 0 0 1 146.8223 267.8076)" fill="#010202" font-family="'HelveticaNeue'" font-size="60">E</text>
	<text transform="matrix(1 0 0 1 297.0645 345.0508)" fill="#010202" font-family="'HelveticaNeue'" font-size="60">R</text>
	<text transform="matrix(1 0 0 1 395.5488 235.6904)" fill="#010202" font-family="'HelveticaNeue'" font-size="60">E</text>
	<text transform="matrix(1 0 0 1 482.7207 114.0894)" fill="#010202" font-family="'HelveticaNeue'" font-size="60">S</text>
	<text transform="matrix(1 0 0 1 615.9395 210.4648)" fill="#010202" font-family="'HelveticaNeue'" font-size="60">A</text>
	<line fill="none" stroke="#C70770" stroke-width="0.75" x1="2.242" y1="2" x2="93.517" y2="78.919"/>
	<line fill="none" stroke="#C70770" stroke-width="0.75" x1="104.984" y1="89.147" x2="243.058" y2="139.175"/>
	<line fill="none" stroke="#C70770" stroke-width="0.75" x1="161.91" y1="221.69" x2="242.823" y2="169.341"/>
	<line fill="none" stroke="#C70770" stroke-width="0.75" x1="175.306" y1="270.573" x2="298.027" y2="306.409"/>
	<path fill="none" stroke="#C70770" stroke-width="0.75" d="M405.521,239.733l-70.684,85.043 M488.863,115.518l-56.52,95.365"/>
	<line fill="none" stroke="#C70770" stroke-width="0.75" x1="619.46" y1="193.297" x2="530.931" y2="107.59"/>
	<line fill="none" stroke="#C70770" stroke-width="0.75" x1="730.373" y1="107.366" x2="647.496" y2="184.413"/>
</g>
</svg>
