<?xml version="1.0" encoding="utf-8"?>
<!-- Generator: Adobe Illustrator 16.0.4, SVG Export Plug-In . SVG Version: 6.00 Build 0)  -->
<!DOCTYPE svg PUBLIC "-//W3C//DTD SVG 1.1//EN" "http://www.w3.org/Graphics/SVG/1.1/DTD/svg11.dtd">
<svg version="1.1" id="Ebene_1" xmlns="http://www.w3.org/2000/svg" xmlns:xlink="http://www.w3.org/1999/xlink" x="0px" y="0px"
	 width="731.34px" height="73.7px" viewBox="0 0 731.34 73.7" enable-background="new 0 0 731.34 73.7" xml:space="preserve">
<g>
	<text transform="matrix(1 0 0 1 131.3018 39.6611)" fill="#010202" font-family="'HelveticaNeue'" font-size="24">T</text>
	<text transform="matrix(1 0 0 1 162.1768 46.9814)" fill="#010202" font-family="'HelveticaNeue'" font-size="24">H</text>
	<text transform="matrix(1 0 0 1 200.1611 23.3643)" fill="#010202" font-family="'HelveticaNeue'" font-size="24">E</text>
	<text transform="matrix(1 0 0 1 238.7861 37.5361)" fill="#010202" font-family="'HelveticaNeue'" font-size="24">R</text>
	<text transform="matrix(1 0 0 1 287.4736 43.7705)" fill="#010202" font-family="'HelveticaNeue'" font-size="24">E</text>
	<text transform="matrix(1 0 0 1 328.8564 29.0283)" fill="#010202" font-family="'HelveticaNeue'" font-size="24">S</text>
	<text transform="matrix(1 0 0 1 361.5986 58.3252)" fill="#010202" font-family="'HelveticaNeue'" font-size="24">A</text>
	<text transform="matrix(1 0 0 1 418.9971 63.0439)" fill="#010202" font-family="'HelveticaNeue'" font-size="24">S</text>
	<text transform="matrix(1 0 0 1 459.2471 44.1455)" fill="#010202" font-family="'HelveticaNeue'" font-size="24">C</text>
	<text transform="matrix(1 0 0 1 499.5986 31.3955)" fill="#010202" font-family="'HelveticaNeue'" font-size="24">H</text>
	<text transform="matrix(1 0 0 1 540.8721 57.3799)" fill="#010202" font-family="'HelveticaNeue'" font-size="24">O</text>
	<text transform="matrix(1 0 0 1 589.2158 71.5518)" fill="#010202" font-family="'HelveticaNeue'" font-size="24">L</text>
	<text transform="matrix(1 0 0 1 620.9502 32.8174)" fill="#010202" font-family="'HelveticaNeue'" font-size="24">L</text>
	<line fill="none" stroke="#C70770" x1="2.107" y1="1" x2="134.562" y2="30.163"/>
	<line fill="none" stroke="#C70770" x1="141.458" y1="30.815" x2="162.725" y2="39.54"/>
	<line fill="none" stroke="#C70770" x1="179.16" y1="37.888" x2="200.785" y2="15.755"/>
	<line fill="none" stroke="#C70770" x1="238.263" y1="30.222" x2="214.422" y2="15.823"/>
	<line fill="none" stroke="#C70770" x1="255.194" y1="29.891" x2="286.611" y2="36.073"/>
	<line fill="none" stroke="#C70770" x1="302.403" y1="34.381" x2="330.089" y2="21.113"/>
	<line fill="none" stroke="#C70770" x1="341.67" y1="29.767" x2="362.561" y2="51.141"/>
	<line fill="none" stroke="#C70770" x1="376.021" y1="49.789" x2="418.529" y2="55.693"/>
	<line fill="none" stroke="#C70770" x1="433.391" y1="52.334" x2="459.664" y2="40.846"/>
	<line fill="none" stroke="#C70770" x1="477.033" y1="31.467" x2="499.174" y2="23.185"/>
	<line fill="none" stroke="#C70770" x1="516.219" y1="23.216" x2="542.852" y2="42.334"/>
	<line fill="none" stroke="#C70770" x1="559.621" y1="50.865" x2="589.049" y2="62.172"/>
	<line fill="none" stroke="#C70770" x1="620.682" y1="28.174" x2="596.158" y2="67.336"/>
	<line fill="none" stroke="#C70770" x1="627.547" y1="24.703" x2="730.312" y2="4.669"/>
</g>
</svg>
